<svg xmlns="http://www.w3.org/2000/svg" viewBox="0 0 1200 675" width="1200" height="675" role="img">
<defs>
  <linearGradient id="g14181" gradientTransform="rotate(20)">
    <stop offset="0" stop-color="#0a2a66"/>
    <stop offset="1" stop-color="#1e6fd6"/>
  </linearGradient>
  <radialGradient id="g14181v" cx="50%" cy="42%" r="75%">
    <stop offset="60%" stop-color="#000000" stop-opacity="0"/>
    <stop offset="100%" stop-color="#000000" stop-opacity="0.35"/>
  </radialGradient>
  <filter id="g14181n"><feTurbulence type="fractalNoise" baseFrequency="0.9" numOctaves="2" stitchTiles="stitch"/>
    <feColorMatrix type="saturate" values="0"/></filter>
</defs>
<rect width="1200" height="675" fill="url(#g14181)"/>
<circle cx="674" cy="521" r="354" fill="#ffffff" opacity="0.07"/><circle cx="1096" cy="517" r="420" fill="#ffffff" opacity="0.07"/><circle cx="928" cy="179" r="443" fill="#ffffff" opacity="0.07"/>
<line x1="343" y1="520" x2="562" y2="417" stroke="#ffffff" stroke-width="1.4" opacity="0.35"/><line x1="343" y1="520" x2="410" y2="253" stroke="#ffffff" stroke-width="1.4" opacity="0.35"/><line x1="343" y1="520" x2="455" y2="525" stroke="#ffffff" stroke-width="1.4" opacity="0.35"/><line x1="799" y1="393" x2="562" y2="417" stroke="#ffffff" stroke-width="1.4" opacity="0.35"/><line x1="799" y1="393" x2="455" y2="525" stroke="#ffffff" stroke-width="1.4" opacity="0.35"/><line x1="799" y1="393" x2="631" y2="135" stroke="#ffffff" stroke-width="1.4" opacity="0.35"/><line x1="799" y1="393" x2="1032" y2="121" stroke="#ffffff" stroke-width="1.4" opacity="0.35"/><line x1="799" y1="393" x2="755" y2="145" stroke="#ffffff" stroke-width="1.4" opacity="0.35"/><line x1="562" y1="417" x2="410" y2="253" stroke="#ffffff" stroke-width="1.4" opacity="0.35"/><line x1="562" y1="417" x2="455" y2="525" stroke="#ffffff" stroke-width="1.4" opacity="0.35"/><line x1="562" y1="417" x2="631" y2="135" stroke="#ffffff" stroke-width="1.4" opacity="0.35"/><line x1="562" y1="417" x2="755" y2="145" stroke="#ffffff" stroke-width="1.4" opacity="0.35"/><line x1="410" y1="253" x2="455" y2="525" stroke="#ffffff" stroke-width="1.4" opacity="0.35"/><line x1="410" y1="253" x2="631" y2="135" stroke="#ffffff" stroke-width="1.4" opacity="0.35"/><line x1="410" y1="253" x2="755" y2="145" stroke="#ffffff" stroke-width="1.4" opacity="0.35"/><line x1="631" y1="135" x2="1032" y2="121" stroke="#ffffff" stroke-width="1.4" opacity="0.35"/><line x1="631" y1="135" x2="755" y2="145" stroke="#ffffff" stroke-width="1.4" opacity="0.35"/><line x1="1032" y1="121" x2="755" y2="145" stroke="#ffffff" stroke-width="1.4" opacity="0.35"/><circle cx="343" cy="520" r="24" fill="#63e6ff" opacity="0.95"/><circle cx="343" cy="520" r="36" fill="none" stroke="#63e6ff" stroke-width="1.2" opacity="0.4"/><circle cx="799" cy="393" r="9" fill="#63e6ff" opacity="0.95"/><circle cx="799" cy="393" r="21" fill="none" stroke="#63e6ff" stroke-width="1.2" opacity="0.4"/><circle cx="562" cy="417" r="23" fill="#63e6ff" opacity="0.95"/><circle cx="562" cy="417" r="35" fill="none" stroke="#63e6ff" stroke-width="1.2" opacity="0.4"/><circle cx="410" cy="253" r="16" fill="#63e6ff" opacity="0.95"/><circle cx="410" cy="253" r="28" fill="none" stroke="#63e6ff" stroke-width="1.2" opacity="0.4"/><circle cx="455" cy="525" r="11" fill="#63e6ff" opacity="0.95"/><circle cx="455" cy="525" r="23" fill="none" stroke="#63e6ff" stroke-width="1.2" opacity="0.4"/><circle cx="631" cy="135" r="12" fill="#63e6ff" opacity="0.95"/><circle cx="631" cy="135" r="24" fill="none" stroke="#63e6ff" stroke-width="1.2" opacity="0.4"/><circle cx="1032" cy="121" r="24" fill="#63e6ff" opacity="0.95"/><circle cx="1032" cy="121" r="36" fill="none" stroke="#63e6ff" stroke-width="1.2" opacity="0.4"/><circle cx="755" cy="145" r="9" fill="#63e6ff" opacity="0.95"/><circle cx="755" cy="145" r="21" fill="none" stroke="#63e6ff" stroke-width="1.2" opacity="0.4"/>
<rect width="1200" height="675" fill="url(#g14181v)"/>
<rect width="1200" height="675" filter="url(#g14181n)" opacity="0.05"/>
</svg>