<svg xmlns="http://www.w3.org/2000/svg" viewBox="0 0 1200 675" width="1200" height="675" role="img">
<defs>
  <linearGradient id="g64557" gradientTransform="rotate(20)">
    <stop offset="0" stop-color="#0b3d2e"/>
    <stop offset="1" stop-color="#1b7a4b"/>
  </linearGradient>
  <radialGradient id="g64557v" cx="50%" cy="42%" r="75%">
    <stop offset="60%" stop-color="#000000" stop-opacity="0"/>
    <stop offset="100%" stop-color="#000000" stop-opacity="0.35"/>
  </radialGradient>
  <filter id="g64557n"><feTurbulence type="fractalNoise" baseFrequency="0.9" numOctaves="2" stitchTiles="stitch"/>
    <feColorMatrix type="saturate" values="0"/></filter>
</defs>
<rect width="1200" height="675" fill="url(#g64557)"/>
<circle cx="1251" cy="704" r="417" fill="#ffffff" opacity="0.07"/><circle cx="733" cy="108" r="284" fill="#8ee6b0" opacity="0.07"/><circle cx="518" cy="18" r="348" fill="#ffffff" opacity="0.07"/>
<rect x="120" y="434" width="58" height="171" rx="3" fill="#ffffff" opacity="0.85"/><rect x="196" y="373" width="58" height="232" rx="3" fill="#8ee6b0" opacity="0.4"/><rect x="276" y="180" width="58" height="425" rx="3" fill="#ffffff" opacity="0.85"/><rect x="354" y="243" width="58" height="362" rx="3" fill="#ffffff" opacity="0.85"/><rect x="433" y="358" width="58" height="247" rx="3" fill="#8ee6b0" opacity="0.85"/><rect x="522" y="347" width="58" height="258" rx="3" fill="#8ee6b0" opacity="0.6"/><rect x="617" y="213" width="58" height="392" rx="3" fill="#8ee6b0" opacity="0.9"/><rect x="698" y="460" width="58" height="145" rx="3" fill="#8ee6b0" opacity="0.6"/><rect x="792" y="490" width="58" height="115" rx="3" fill="#8ee6b0" opacity="0.6"/><rect x="873" y="393" width="58" height="212" rx="3" fill="#8ee6b0" opacity="0.4"/><rect x="969" y="442" width="58" height="163" rx="3" fill="#8ee6b0" opacity="0.85"/><rect x="1053" y="491" width="58" height="114" rx="3" fill="#8ee6b0" opacity="0.4"/>
<rect width="1200" height="675" fill="url(#g64557v)"/>
<rect width="1200" height="675" filter="url(#g64557n)" opacity="0.05"/>
</svg>